<svg width="125" height="38" viewBox="0 0 125 38" fill="none" xmlns="http://www.w3.org/2000/svg">
<path fill-rule="evenodd" clip-rule="evenodd" d="M11.2786 20.0786C9.36022 20.8222 8 22.6856 8 24.8667C8 27.7017 10.2983 30 13.1333 30C15.3144 30 17.1777 28.6398 17.9214 26.7214L11.2786 20.0786Z" fill="#1E4841"/>
<path fill-rule="evenodd" clip-rule="evenodd" d="M23.012 20.0786C21.0936 20.8222 19.7333 22.6856 19.7333 24.8667C19.7333 27.7017 22.0316 30 24.8667 30C27.0477 30 28.9111 28.6398 29.6547 26.7214L23.012 20.0786Z" fill="#1E4841"/>
<path fill-rule="evenodd" clip-rule="evenodd" d="M23.012 8C21.0936 8.74363 19.7333 10.607 19.7333 12.788C19.7333 15.6231 22.0316 17.9214 24.8667 17.9214C27.0477 17.9214 28.9111 16.5612 29.6547 14.6427L23.012 8Z" fill="#1E4841"/>
<path fill-rule="evenodd" clip-rule="evenodd" d="M11.2786 8.34531C9.36022 9.08894 8 10.9523 8 13.1334C8 15.9684 10.2983 18.2667 13.1333 18.2667C15.3144 18.2667 17.1777 16.9065 17.9214 14.9881L11.2786 8.34531Z" fill="#1E4841"/>
<path d="M118 12.5348V15.0784H114.203V25.4372H111.659V15.0784H107.862V12.5348H118Z" fill="currentColor"/>
<path d="M101.708 25.6768C100.983 25.6768 100.289 25.5632 99.625 25.3358C98.9676 25.1085 98.3901 24.7798 97.8924 24.3497C97.4009 23.9196 97.0476 23.4097 96.8326 22.8199L99.2195 21.9351C99.2933 22.144 99.4469 22.3406 99.6803 22.525C99.9138 22.7031 100.206 22.8506 100.556 22.9673C100.906 23.0779 101.29 23.1332 101.708 23.1332C102.107 23.1332 102.482 23.0748 102.832 22.9581C103.189 22.8352 103.474 22.6663 103.689 22.4512C103.911 22.2362 104.021 21.9843 104.021 21.6955C104.021 21.4067 103.907 21.1671 103.68 20.9767C103.453 20.7862 103.161 20.6357 102.805 20.5251C102.448 20.4083 102.083 20.3192 101.708 20.2578C100.78 20.1226 99.9476 19.9045 99.2103 19.6035C98.4792 19.2963 97.9016 18.8754 97.4777 18.3409C97.0538 17.8002 96.8418 17.1151 96.8418 16.2857C96.8418 15.487 97.0661 14.7896 97.5146 14.1936C97.9692 13.5977 98.5652 13.1338 99.3025 12.802C100.046 12.4702 100.848 12.3044 101.708 12.3044C102.421 12.3044 103.109 12.418 103.772 12.6453C104.436 12.8727 105.013 13.2014 105.505 13.6315C106.003 14.0615 106.359 14.5776 106.574 15.1798L104.187 16.0461C104.113 15.8372 103.96 15.6436 103.726 15.4655C103.493 15.2873 103.201 15.1429 102.851 15.0323C102.5 14.9217 102.12 14.8664 101.708 14.8664C101.315 14.8603 100.94 14.9186 100.584 15.0415C100.233 15.1644 99.9445 15.3334 99.7172 15.5484C99.496 15.7634 99.3854 16.0092 99.3854 16.2857C99.3854 16.6482 99.4899 16.9216 99.6988 17.1059C99.9138 17.2902 100.196 17.4223 100.547 17.5022C100.897 17.5821 101.284 17.6527 101.708 17.7142C102.58 17.8432 103.385 18.0736 104.122 18.4054C104.86 18.731 105.45 19.1672 105.892 19.7141C106.34 20.2547 106.565 20.9152 106.565 21.6955C106.565 22.4942 106.34 23.1916 105.892 23.7875C105.443 24.3835 104.851 24.8474 104.113 25.1792C103.376 25.5109 102.574 25.6768 101.708 25.6768Z" fill="currentColor"/>
<path d="M86.8289 25.4372V12.5348H94.9943V15.0784H89.3725V17.2534H93.7593V19.797H89.3725V22.8936H94.9943V25.4372H86.8289Z" fill="currentColor"/>
<path d="M74.3008 25.4372V12.5348H77.0472L82.0791 20.8384V12.5348H84.6228V25.4372H81.8764L76.8444 17.1336V25.4372H74.3008Z" fill="currentColor"/>
<path d="M69.2673 25.4372V12.5348H71.8109V25.4372H69.2673Z" fill="currentColor"/>
<path d="M61.0131 25.6768C60.1407 25.6768 59.3204 25.5048 58.5524 25.1607C57.7844 24.8105 57.1086 24.3282 56.5249 23.7138C55.9412 23.0994 55.4835 22.3898 55.1517 21.5849C54.8199 20.7739 54.6541 19.9076 54.6541 18.986C54.6541 18.0644 54.8199 17.2011 55.1517 16.3963C55.4835 15.5853 55.9412 14.8726 56.5249 14.2582C57.1086 13.6438 57.7844 13.1645 58.5524 12.8205C59.3204 12.4702 60.1407 12.2951 61.0131 12.2951C61.8917 12.2951 62.715 12.4702 63.483 12.8205C64.251 13.1645 64.9269 13.6438 65.5106 14.2582C66.0942 14.8726 66.5489 15.5853 66.8745 16.3963C67.2063 17.2011 67.3722 18.0644 67.3722 18.986C67.3722 19.9076 67.2063 20.7739 66.8745 21.5849C66.5489 22.3898 66.0942 23.0994 65.5106 23.7138C64.9269 24.3282 64.251 24.8105 63.483 25.1607C62.715 25.5048 61.8917 25.6768 61.0131 25.6768ZM61.0131 23.1332C61.5354 23.1332 62.0269 23.0257 62.4877 22.8106C62.9485 22.5895 63.354 22.2884 63.7042 21.9075C64.0544 21.5265 64.3278 21.0872 64.5244 20.5896C64.7272 20.0919 64.8286 19.5574 64.8286 18.986C64.8286 18.4146 64.7272 17.8801 64.5244 17.3824C64.3278 16.8786 64.0544 16.4393 63.7042 16.0645C63.354 15.6836 62.9485 15.3856 62.4877 15.1705C62.0269 14.9494 61.5354 14.8388 61.0131 14.8388C60.4909 14.8388 59.9994 14.9494 59.5386 15.1705C59.0778 15.3856 58.6722 15.6836 58.322 16.0645C57.9718 16.4454 57.6953 16.8847 57.4926 17.3824C57.296 17.8801 57.1977 18.4146 57.1977 18.986C57.1977 19.5574 57.296 20.095 57.4926 20.5988C57.6953 21.0965 57.9718 21.5358 58.322 21.9167C58.6722 22.2915 59.0778 22.5895 59.5386 22.8106C59.9994 23.0257 60.4909 23.1332 61.0131 23.1332Z" fill="currentColor"/>
<path d="M48.3406 25.6768C47.4682 25.6768 46.648 25.5048 45.88 25.1607C45.112 24.8105 44.4361 24.3282 43.8524 23.7138C43.2749 23.0994 42.8202 22.3898 42.4885 21.5849C42.1628 20.7739 42 19.9076 42 18.986C42 18.0582 42.1628 17.1919 42.4885 16.3871C42.8202 15.576 43.2749 14.8664 43.8524 14.2582C44.4361 13.6438 45.112 13.1645 45.88 12.8205C46.648 12.4702 47.4682 12.2951 48.3406 12.2951C49.3851 12.2951 50.3467 12.5378 51.2253 13.0232C52.1039 13.5024 52.8319 14.1445 53.4095 14.9494L51.1423 16.1751C50.7983 15.7696 50.3835 15.447 49.8982 15.2074C49.4128 14.9616 48.8936 14.8388 48.3406 14.8388C47.8184 14.8388 47.3269 14.9463 46.8661 15.1613C46.4053 15.3764 45.9998 15.6744 45.6496 16.0553C45.3055 16.4362 45.0352 16.8755 44.8385 17.3732C44.6419 17.8708 44.5436 18.4084 44.5436 18.986C44.5436 19.5574 44.6419 20.095 44.8385 20.5988C45.0352 21.0965 45.3055 21.5358 45.6496 21.9167C45.9998 22.2915 46.4053 22.5895 46.8661 22.8106C47.3269 23.0257 47.8184 23.1332 48.3406 23.1332C48.8997 23.1332 49.4189 23.0103 49.8982 22.7646C50.3835 22.5188 50.7983 22.1932 51.1423 21.7877L53.4095 23.0226C52.8319 23.8213 52.1039 24.4634 51.2253 24.9488C50.3467 25.4341 49.3851 25.6768 48.3406 25.6768Z" fill="currentColor"/>
</svg>
