<svg width="23" height="23" viewBox="0 0 23 23" fill="none" xmlns="http://www.w3.org/2000/svg">
<path fill-rule="evenodd" clip-rule="evenodd" d="M3.42765 12.6277C1.42204 13.4051 0 15.3531 0 17.6333C0 20.5973 2.40274 23 5.36667 23C7.64686 23 9.59491 21.578 10.3723 19.5723L3.42765 12.6277Z" fill="#BBF49C"/>
<path fill-rule="evenodd" clip-rule="evenodd" d="M15.6943 12.6277C13.6887 13.4051 12.2667 15.3531 12.2667 17.6333C12.2667 20.5973 14.6694 23 17.6333 23C19.9135 23 21.8616 21.578 22.639 19.5723L15.6943 12.6277Z" fill="#BBF49C"/>
<path fill-rule="evenodd" clip-rule="evenodd" d="M15.6943 1.49274e-08C13.6887 0.777436 12.2667 2.72549 12.2667 5.00568C12.2667 7.96961 14.6694 10.3723 17.6333 10.3723C19.9135 10.3723 21.8616 8.9503 22.639 6.94469L15.6943 1.49274e-08Z" fill="#BBF49C"/>
<path fill-rule="evenodd" clip-rule="evenodd" d="M3.42765 0.360992C1.42204 1.13843 0 3.08648 0 5.36667C0 8.3306 2.40274 10.7333 5.36667 10.7333C7.64685 10.7333 9.59491 9.31129 10.3723 7.30569L3.42765 0.360992Z" fill="#BBF49C"/>
</svg>
