<svg width="59" height="57" viewBox="0 0 59 57" fill="none" xmlns="http://www.w3.org/2000/svg">
<g opacity="0.16">
<path fill-rule="evenodd" clip-rule="evenodd" d="M9.68685 27.6868C4.01882 29.8839 0 35.3893 0 41.8333C0 50.2096 6.79035 57 15.1667 57C21.6107 57 27.1161 52.9812 29.3132 47.3131L9.68685 27.6868Z" fill="#BBF49C"/>
<path fill-rule="evenodd" clip-rule="evenodd" d="M44.3535 27.6869C38.6855 29.884 34.6667 35.3893 34.6667 41.8333C34.6667 50.2097 41.457 57 49.8334 57C56.2774 57 61.7827 52.9812 63.9798 47.3132L44.3535 27.6869Z" fill="#BBF49C"/>
<path fill-rule="evenodd" clip-rule="evenodd" d="M44.3535 -8C38.6855 -5.8029 34.6667 -0.29753 34.6667 6.14649C34.6667 14.5228 41.457 21.3132 49.8334 21.3132C56.2774 21.3132 61.7827 17.2943 63.9798 11.6263L44.3535 -8Z" fill="#BBF49C"/>
<path fill-rule="evenodd" clip-rule="evenodd" d="M9.68685 -6.97983C4.01882 -4.78273 0 0.722642 0 7.16666C0 15.543 6.79035 22.3333 15.1667 22.3333C21.6107 22.3333 27.1161 18.3145 29.3132 12.6465L9.68685 -6.97983Z" fill="#BBF49C"/>
</g>
</svg>
